<?xml version="1.0" standalone="no"?>
<!DOCTYPE svg PUBLIC "-//W3C//DTD SVG 20010904//EN"
 "http://www.w3.org/TR/2001/REC-SVG-20010904/DTD/svg10.dtd">
<svg version="1.0" xmlns="http://www.w3.org/2000/svg"
 width="300.000000pt" height="300.000000pt" viewBox="0 0 300.000000 300.000000"
 preserveAspectRatio="xMidYMid meet">
<metadata>
Created by potrace 1.11, written by Peter Selinger 2001-2013
</metadata>
<g transform="translate(0.000000,300.000000) scale(0.100000,-0.100000)"
fill="#000000" stroke="none">
<path d="M339 2757 c0 -7 -1 -150 -2 -318 l-2 -306 133 -94 c398 -282 743
-527 748 -532 3 -2 -36 -33 -86 -68 -50 -35 -106 -75 -125 -89 -18 -14 -177
-126 -353 -250 l-320 -225 -1 -317 -1 -318 288 0 c158 -1 679 -2 1157 -3 l870
-2 3 379 c1 226 -2 382 -7 385 -5 4 -192 6 -415 6 -303 0 -402 3 -393 11 7 7
154 112 327 234 173 122 323 230 332 239 15 15 -8 33 -323 256 -186 132 -339
242 -339 245 0 3 185 5 412 5 l411 0 1 383 c1 335 -1 382 -14 383 -8 0 -529 2
-1157 4 -878 3 -1143 1 -1144 -8z m2029 -362 c4 -4 7 -24 8 -46 l1 -39 -794
-2 -793 -3 482 -345 c265 -190 506 -363 537 -384 31 -21 66 -47 79 -57 l22
-17 -144 -104 c-80 -56 -326 -232 -548 -391 -222 -158 -410 -293 -419 -300
-16 -12 232 -15 1279 -17 l292 0 0 -45 c0 -29 -4 -45 -12 -46 -7 0 -188 -1
-403 0 -214 0 -605 0 -867 1 l-478 0 0 48 c0 48 1 49 58 88 31 21 62 42 67 47
9 7 231 164 265 187 8 6 67 47 130 92 63 44 221 155 350 246 129 90 243 172
253 182 17 16 -5 33 -474 366 -271 192 -524 371 -563 398 -39 27 -73 50 -74
52 -9 6 -10 89 -1 94 13 8 1739 3 1747 -5z"/>
</g>
</svg>
